<svg xmlns="http://www.w3.org/2000/svg" width="32" height="32" fill="none"><path fill="url(#a)" fill-rule="evenodd" d="m12.178 24.385 2.207 3.018a2 2 0 0 0 3.23 0l2.207-3.018a6 6 0 0 1 2.972-2.16l3.552-1.166a2 2 0 0 0 .998-3.07l-2.189-3.032a6 6 0 0 1-1.135-3.494l-.011-3.74a2 2 0 0 0-2.612-1.898l-3.56 1.145a6 6 0 0 1-3.674 0l-3.56-1.145a2 2 0 0 0-2.612 1.898l-.011 3.74a6 6 0 0 1-1.135 3.494l-2.19 3.031a2 2 0 0 0 .999 3.071l3.552 1.167a6 6 0 0 1 2.972 2.159m.593 4.199c1.598 2.185 4.86 2.185 6.458 0l2.207-3.019a4 4 0 0 1 1.981-1.44l3.553-1.165c2.573-.845 3.58-3.947 1.996-6.142l-2.189-3.032a4 4 0 0 1-.757-2.33l-.011-3.739C26 5.01 23.362 3.093 20.784 3.921l-3.56 1.145a4 4 0 0 1-2.449 0l-3.56-1.145C8.639 3.093 6 5.01 5.992 7.717l-.011 3.74a4 4 0 0 1-.757 2.329l-2.189 3.032c-1.584 2.195-.576 5.297 1.996 6.142l3.553 1.166a4 4 0 0 1 1.981 1.44z" clip-rule="evenodd"/><path fill="#000" d="M16.117 21.234c-1.677 0-3.142-.783-3.67-1.904a1.65 1.65 0 0 1-.175-.725c0-.564.351-.9.923-.9.44 0 .718.153.967.548.38.762 1.003 1.224 1.955 1.224 1.15 0 1.978-.828 1.978-1.97 0-1.114-.82-1.905-1.97-1.905-.63 0-1.158.271-1.531.63-.432.403-.652.513-1.143.513-.725 0-1.07-.506-1.04-1.099 0-.03 0-.051.008-.088l.307-3.874c.073-.894.535-1.253 1.392-1.253h4.636c.55 0 .908.344.908.88 0 .534-.351.878-.908.878h-4.175l-.249 2.937h.044c.432-.681 1.296-1.106 2.373-1.106 2.022 0 3.457 1.42 3.457 3.435 0 2.256-1.677 3.78-4.087 3.78"/><path fill="url(#b)" fill-rule="evenodd" d="m19.822 7.615-2.207-3.018a2 2 0 0 0-3.23 0l-2.207 3.018a6 6 0 0 1-2.972 2.16L5.654 10.94a2 2 0 0 0-.998 3.07l2.189 3.032a6 6 0 0 1 1.135 3.494l.011 3.74a2 2 0 0 0 2.612 1.898l3.56-1.145a6 6 0 0 1 3.674 0l3.56 1.145a2 2 0 0 0 2.612-1.898l.011-3.74a6 6 0 0 1 1.136-3.494l2.188-3.031a2 2 0 0 0-.998-3.071l-3.552-1.167a6 6 0 0 1-2.972-2.159m-.593-4.199c-1.598-2.185-4.86-2.185-6.458 0l-2.207 3.019a4 4 0 0 1-1.981 1.44L5.03 9.04c-2.573.845-3.58 3.947-1.996 6.142l2.189 3.032a4 4 0 0 1 .757 2.33l.011 3.739c.008 2.707 2.647 4.624 5.225 3.795l3.56-1.144a4 4 0 0 1 2.448 0l3.56 1.144c2.578.83 5.217-1.088 5.225-3.795l.011-3.74a4 4 0 0 1 .757-2.329l2.189-3.032c1.584-2.195.576-5.297-1.996-6.142l-3.553-1.166a4 4 0 0 1-1.981-1.44z" clip-rule="evenodd"/><defs><linearGradient id="a" x1="16" x2="16" y1="33" y2="-1" gradientUnits="userSpaceOnUse"><stop stop-color="#2F8BB6"/><stop offset="1" stop-color="#90CDF6"/></linearGradient><linearGradient id="b" x1="31.008" x2=".992" y1=".992" y2="31.009" gradientUnits="userSpaceOnUse"><stop stop-color="#9390F6"/><stop offset="1" stop-color="#2F55B6"/></linearGradient></defs></svg>